<svg width="153" height="117" viewBox="0 0 153 117" fill="none" xmlns="http://www.w3.org/2000/svg">
<path d="M0 14.04C0 6.28592 6.22731 0 13.9091 0H139.091C146.773 0 153 6.28592 153 14.04V102.96C153 110.714 146.773 117 139.091 117H13.9091C6.22731 117 0 110.714 0 102.96V14.04Z" fill="#EDD0D7"/>
<path d="M12.9818 41.184C12.9818 39.3747 14.4349 37.908 16.2273 37.908H23.6455C25.4379 37.908 26.8909 39.3747 26.8909 41.184V48.672C26.8909 50.4813 25.4379 51.948 23.6455 51.948H16.2273C14.4349 51.948 12.9818 50.4813 12.9818 48.672V41.184Z" fill="#2A0513"/>
<path d="M12.9818 68.328C12.9818 66.5187 14.4349 65.052 16.2273 65.052H23.6455C25.4379 65.052 26.8909 66.5187 26.8909 68.328V75.816C26.8909 77.6253 25.4379 79.092 23.6455 79.092H16.2273C14.4349 79.092 12.9818 77.6253 12.9818 75.816V68.328Z" fill="#2A0513"/>
<path d="M12.9818 95.472C12.9818 93.6627 14.4349 92.196 16.2273 92.196H23.6455C25.4379 92.196 26.8909 93.6627 26.8909 95.472V102.96C26.8909 104.769 25.4379 106.236 23.6455 106.236H16.2273C14.4349 106.236 12.9818 104.769 12.9818 102.96V95.472Z" fill="#2A0513"/>
<path d="M12.9818 14.04C12.9818 12.2307 14.4349 10.764 16.2273 10.764H23.6455C25.4379 10.764 26.8909 12.2307 26.8909 14.04V21.528C26.8909 23.3373 25.4379 24.804 23.6455 24.804H16.2273C14.4349 24.804 12.9818 23.3373 12.9818 21.528V14.04Z" fill="#2A0513"/>
<path d="M126.109 41.184C126.109 39.3747 127.562 37.908 129.355 37.908H136.773C138.565 37.908 140.018 39.3747 140.018 41.184V48.672C140.018 50.4813 138.565 51.948 136.773 51.948H129.355C127.562 51.948 126.109 50.4813 126.109 48.672V41.184Z" fill="#2A0513"/>
<path d="M126.109 68.328C126.109 66.5187 127.562 65.052 129.355 65.052H136.773C138.565 65.052 140.018 66.5187 140.018 68.328V75.816C140.018 77.6253 138.565 79.092 136.773 79.092H129.355C127.562 79.092 126.109 77.6253 126.109 75.816V68.328Z" fill="#2A0513"/>
<path d="M126.109 95.472C126.109 93.6627 127.562 92.196 129.355 92.196H136.773C138.565 92.196 140.018 93.6627 140.018 95.472V102.96C140.018 104.769 138.565 106.236 136.773 106.236H129.355C127.562 106.236 126.109 104.769 126.109 102.96V95.472Z" fill="#2A0513"/>
<path d="M126.109 14.04C126.109 12.2307 127.562 10.764 129.355 10.764H136.773C138.565 10.764 140.018 12.2307 140.018 14.04V21.528C140.018 23.3373 138.565 24.804 136.773 24.804H129.355C127.562 24.804 126.109 23.3373 126.109 21.528V14.04Z" fill="#2A0513"/>
<path d="M57.0219 35.4744C57.0219 31.8718 60.8855 29.6201 63.9764 31.4214L103.838 54.6524C106.929 56.4537 106.929 60.957 103.838 62.7584L63.9764 85.9893C60.8855 87.7906 57.0219 85.5389 57.0219 81.9363L57.0219 35.4744Z" fill="#2A0513"/>
</svg>
